<svg width="259" height="60" viewBox="0 0 259 60" fill="none" xmlns="http://www.w3.org/2000/svg">
    <g filter="url(#filter0_b)">
        <path d="M47.2002 54H45.7783L53.9922 35.8457H55.5791L63.8311 54H62.2441L59.5527 47.9062H51.415L51.8086 46.7637H59.0576L54.7031 36.8867L47.2002 54ZM67.6396 52.4385C69.0023 52.6839 70.2337 52.8066 71.334 52.8066C74.804 52.8066 76.5391 50.8643 76.5391 46.9795C76.5391 43.6195 74.9437 41.9395 71.7529 41.9395C70.5342 41.9395 69.1631 42.168 67.6396 42.625V52.4385ZM66.3066 35.8457H67.6396V41.3047C69.2393 40.8815 70.6146 40.6699 71.7656 40.6699C75.8112 40.6699 77.834 42.8027 77.834 47.0684C77.834 51.6895 75.7054 54 71.4482 54C69.5355 54 67.8216 53.818 66.3066 53.4541V35.8457ZM81.0078 53.3652V52.0957C82.4889 52.6035 83.9447 52.8574 85.375 52.8574C88.1764 52.8574 89.5771 51.9688 89.5771 50.1914C89.5771 48.7526 88.5404 48.0332 86.4668 48.0332H84.7656C81.9727 48.0332 80.5762 46.8483 80.5762 44.4785C80.5762 41.9395 82.4255 40.6699 86.124 40.6699C87.5459 40.6699 88.9974 40.8815 90.4785 41.3047V42.5742C88.9974 42.0664 87.5459 41.8125 86.124 41.8125C83.3141 41.8125 81.9092 42.7012 81.9092 44.4785C81.9092 46.002 82.8613 46.7637 84.7656 46.7637H86.4668C89.429 46.7637 90.9102 47.9062 90.9102 50.1914C90.9102 52.7305 89.0651 54 85.375 54C83.9447 54 82.4889 53.7884 81.0078 53.3652ZM95.0361 47.2842C95.0361 51.0843 96.6654 52.9844 99.9238 52.9844C103.182 52.9844 104.812 51.0843 104.812 47.2842C104.812 43.5518 103.182 41.6855 99.9238 41.6855C96.6654 41.6855 95.0361 43.5518 95.0361 47.2842ZM93.7031 47.335C93.7031 42.807 95.7767 40.543 99.9238 40.543C104.071 40.543 106.145 42.807 106.145 47.335C106.145 51.8545 104.071 54.1143 99.9238 54.1143C95.7936 54.1143 93.7201 51.8545 93.7031 47.335ZM111.159 35.8457V54H109.826V35.8457H111.159ZM126.47 40.6699V54H125.492L125.34 52.2988C123.808 53.4329 122.098 54 120.211 54C117.062 54 115.488 52.3454 115.488 49.0361V40.6699H116.821V49.0742C116.821 51.5625 117.972 52.8066 120.274 52.8066C121.959 52.8066 123.579 52.2438 125.137 51.1182V40.6699H126.47ZM130.494 38.5117H131.434L131.675 40.6699H135.674V41.8125H131.789V50.2295C131.789 51.9814 132.432 52.8574 133.719 52.8574H135.674V54H133.744C131.577 54 130.494 52.8024 130.494 50.4072V38.5117ZM143.888 40.6699C147.535 40.6699 149.359 42.6885 149.359 46.7256C149.359 47.0133 149.351 47.3138 149.334 47.627H139.216C139.216 51.1139 141.061 52.8574 144.751 52.8574C146.266 52.8574 147.612 52.6458 148.788 52.2227V53.3652C147.612 53.7884 146.266 54 144.751 54C140.172 54 137.883 51.7275 137.883 47.1826C137.883 42.8408 139.884 40.6699 143.888 40.6699ZM139.216 46.4336H148.077C148.026 43.3359 146.63 41.7871 143.888 41.7871C140.925 41.7871 139.368 43.3359 139.216 46.4336ZM159.008 53.3652V51.9688C160.912 52.6458 163.011 52.9844 165.305 52.9844C169.105 52.9844 171.005 51.5456 171.005 48.668C171.005 46.5521 169.769 45.4941 167.298 45.4941H163.565C160.188 45.4941 158.5 43.9707 158.5 40.9238C158.5 37.4538 160.976 35.7188 165.927 35.7188C167.958 35.7188 169.926 35.9727 171.83 36.4805V37.75C169.926 37.1576 167.958 36.8613 165.927 36.8613C161.864 36.8613 159.833 38.2155 159.833 40.9238C159.833 43.1243 161.077 44.2246 163.565 44.2246H167.298C170.658 44.2246 172.338 45.7057 172.338 48.668C172.338 52.3073 169.993 54.127 165.305 54.127C163.011 54.127 160.912 53.873 159.008 53.3652ZM174.179 40.6699H175.715L180.666 52.7051L185.541 40.6699H187.014L181.225 54.3936C180.243 56.8141 178.77 58.3249 176.807 58.9258L176.413 57.8594C177.953 57.3008 179.13 56.082 179.942 54.2031L174.179 40.6699ZM189.248 53.3652V52.0957C190.729 52.6035 192.185 52.8574 193.615 52.8574C196.417 52.8574 197.817 51.9688 197.817 50.1914C197.817 48.7526 196.781 48.0332 194.707 48.0332H193.006C190.213 48.0332 188.816 46.8483 188.816 44.4785C188.816 41.9395 190.666 40.6699 194.364 40.6699C195.786 40.6699 197.238 40.8815 198.719 41.3047V42.5742C197.238 42.0664 195.786 41.8125 194.364 41.8125C191.554 41.8125 190.149 42.7012 190.149 44.4785C190.149 46.002 191.102 46.7637 193.006 46.7637H194.707C197.669 46.7637 199.15 47.9062 199.15 50.1914C199.15 52.7305 197.305 54 193.615 54C192.185 54 190.729 53.7884 189.248 53.3652ZM202.527 38.5117H203.467L203.708 40.6699H207.707V41.8125H203.822V50.2295C203.822 51.9814 204.465 52.8574 205.752 52.8574H207.707V54H205.777C203.611 54 202.527 52.8024 202.527 50.4072V38.5117ZM215.921 40.6699C219.569 40.6699 221.393 42.6885 221.393 46.7256C221.393 47.0133 221.384 47.3138 221.367 47.627H211.249C211.249 51.1139 213.094 52.8574 216.784 52.8574C218.299 52.8574 219.645 52.6458 220.821 52.2227V53.3652C219.645 53.7884 218.299 54 216.784 54C212.205 54 209.916 51.7275 209.916 47.1826C209.916 42.8408 211.918 40.6699 215.921 40.6699ZM211.249 46.4336H220.11C220.06 43.3359 218.663 41.7871 215.921 41.7871C212.959 41.7871 211.401 43.3359 211.249 46.4336ZM224.82 54V40.6699H225.772L225.912 42.3457C227.275 41.2285 228.752 40.6699 230.343 40.6699C232.442 40.6699 233.8 41.2793 234.418 42.498C235.95 41.2793 237.503 40.6699 239.077 40.6699C242.056 40.6699 243.546 42.1468 243.546 45.1006V54H242.213V45.1006C242.213 42.9424 241.163 41.8633 239.064 41.8633C237.389 41.8633 236.005 42.4388 234.913 43.5898V54H233.58V44.8848C233.58 42.8704 232.497 41.8633 230.33 41.8633C228.756 41.8633 227.364 42.4388 226.153 43.5898V54H224.82ZM247.367 53.3652V52.0957C248.848 52.6035 250.304 52.8574 251.734 52.8574C254.536 52.8574 255.937 51.9688 255.937 50.1914C255.937 48.7526 254.9 48.0332 252.826 48.0332H251.125C248.332 48.0332 246.936 46.8483 246.936 44.4785C246.936 41.9395 248.785 40.6699 252.483 40.6699C253.905 40.6699 255.357 40.8815 256.838 41.3047V42.5742C255.357 42.0664 253.905 41.8125 252.483 41.8125C249.674 41.8125 248.269 42.7012 248.269 44.4785C248.269 46.002 249.221 46.7637 251.125 46.7637H252.826C255.788 46.7637 257.27 47.9062 257.27 50.1914C257.27 52.7305 255.424 54 251.734 54C250.304 54 248.848 53.7884 247.367 53.3652Z"
              fill="black"/>
    </g>
    <path d="M45 1.5L3 1.5M1.5 31L1.5 0M18 32.5H0M29.8635 18.0124L16.8635 33.0124M29.7124 19.8665L44.7124 32.8665"
          stroke="#61AEE9" stroke-width="3"/>
    <defs>
        <filter id="filter0_b" x="41.7783" y="31.7188" width="219.491" height="31.207" filterUnits="userSpaceOnUse"
                color-interpolation-filters="sRGB">
            <feFlood flood-opacity="0" result="BackgroundImageFix"/>
            <feGaussianBlur in="BackgroundImage" stdDeviation="2"/>
            <feComposite in2="SourceAlpha" operator="in" result="effect1_backgroundBlur"/>
            <feBlend mode="normal" in="SourceGraphic" in2="effect1_backgroundBlur" result="shape"/>
        </filter>
    </defs>
</svg>
