<svg width="1152" height="443" viewBox="0 0 1152 443" fill="none" xmlns="http://www.w3.org/2000/svg">
    <path d="M0 57.381H1152V442.381H0V57.381Z" fill="black" fill-opacity="0.9"/>
    <path d="M274.295 141.847C298.362 160.844 291.178 199.056 261.854 208.016L176.284 234.161C148.971 242.506 122.558 218.866 127.835 190.798L143.173 109.217C148.45 81.1482 181.644 68.7149 204.062 86.4101L274.295 141.847Z"
          fill="#C4C4C4" fill-opacity="0.05"/>
    <path d="M930.535 293.515C949.858 283.348 972.866 298.227 971.52 320.021L966.919 394.48C965.599 415.854 941.749 427.894 923.767 416.265L862.347 376.543C844.365 364.914 845.563 338.224 864.515 328.252L930.535 293.515Z"
          fill="#C4C4C4" fill-opacity="0.05"/>
    <path d="M847.586 96.4536C849.731 85.1459 863.285 80.3662 872.048 87.8276L898.502 110.352C907.308 117.85 904.673 132.072 893.766 135.919L860.839 147.53C849.931 151.376 838.958 141.952 841.113 130.589L847.586 96.4536Z"
          fill="#C4C4C4" fill-opacity="0.05"/>
    <path d="M13.096 267.185C22.436 249.378 46.943 246.928 59.623 262.534L121.56 338.762C135.62 356.066 124.8 382.062 102.614 384.28L-4.94528 395.032C-27.131 397.25 -42.883 373.91 -32.5265 354.165L13.096 267.185Z"
          fill="#C4C4C4" fill-opacity="0.05"/>
    <path d="M270.968 316.638C286.827 308.322 305.687 320.519 304.608 338.394L301.159 395.495C300.098 413.068 280.494 422.982 265.711 413.422L218.496 382.887C203.714 373.327 204.714 351.381 220.305 343.205L270.968 316.638Z"
          fill="#C4C4C4" fill-opacity="0.05"/>
    <path d="M1122.78 66.7226C1142.23 56.2102 1165.62 71.3375 1164.01 93.3918L1149.59 291.271C1148.04 312.492 1124.32 324.302 1106.46 312.747L946.332 209.189C928.465 197.634 929.507 171.159 948.227 161.044L1122.78 66.7226Z"
          fill="#C4C4C4" fill-opacity="0.05"/>
</svg>
