<svg width="1152" height="551" viewBox="0 0 1152 551" fill="none" xmlns="http://www.w3.org/2000/svg">
    <path d="M3 79H1155V464H3V79Z" fill="black" fill-opacity="0.9"/>
    <path d="M654.388 34.0394C673.711 23.8721 696.719 38.7519 695.373 60.5453L690.772 135.005C689.451 156.379 665.602 168.419 647.62 156.79L586.2 117.068C568.218 105.438 569.416 78.7486 588.368 68.777L654.388 34.0394Z"
          fill="#C4C4C4" fill-opacity="0.05"/>
    <path d="M911.481 348.215C930.805 338.048 953.812 352.927 952.466 374.721L943.887 513.572C942.566 534.946 918.717 546.986 900.735 535.357L786.2 461.284C768.218 449.654 769.416 422.965 788.367 412.993L911.481 348.215Z"
          fill="#C4C4C4" fill-opacity="0.05"/>
    <path d="M1028.64 136.341C1031.58 114.704 1057.05 104.605 1074.01 118.351L1181.43 205.387C1198.07 218.869 1194.03 245.278 1174.13 253.171L1048.11 303.136C1028.21 311.029 1007.17 294.562 1010.05 273.342L1028.64 136.341Z"
          fill="#C4C4C4" fill-opacity="0.05"/>
    <path d="M16.096 289.185C25.436 271.378 49.943 268.928 62.623 284.534L124.56 360.762C138.62 378.066 127.8 404.062 105.614 406.28L-1.94528 417.032C-24.131 419.25 -39.883 395.91 -29.5265 376.165L16.096 289.185Z"
          fill="#C4C4C4" fill-opacity="0.05"/>
</svg>
